#!OML:ASF E:\motion texture\Top Level 1\Subject 1\Session 1\male.ASF
:FULLY-SPECIFIED
:DEGREES
96
root 19.1409 17.8432 2.69687 67.9611 -79.833 -60.9597
lowerback -1.56702 2.11963 6.28563
upperback -0.349894 2.59387 4.11799
thorax 0.61045 1.25816 0.776726
lowerneck -12.2148 -2.71392 -4.9858
upperneck 16.6751 -3.2825 2.41065
head 7.25012 -1.71253 1.27731
rclavicle 3.07122e-014 -2.46493e-014
rhumerus -36.2226 -22.258 -69.0938
rradius 15.7571
rwrist 28.6009
rhand -6.38672 -26.2222
rfingers 7.12502
rthumb 19.4606 -55.2684
lclavicle 3.07122e-014 -2.46493e-014
lhumerus -59.2917 34.4773 33.9674
lradius 18.6368
lwrist -35.2708
lhand -9.08039 21.9634
lfingers 7.12502
lthumb 16.8691 51.2507
rfemur -1.98652 4.62326 36.0489
rtibia 13.0167
rfoot -12.3898 -9.57386
rtoes 13.0969
lfemur -34.5869 0.539208 -4.52749
ltibia 34.118
lfoot -7.42709 5.36938
ltoes -14.8665
97
root 19.0231 17.832 2.71222 69.5272 -79.8893 -62.322
lowerback -1.6664 2.16879 6.35909
upperback -0.431137 2.65398 4.08392
thorax 0.589283 1.28649 0.704804
lowerneck -12.1779 -2.69573 -4.96903
upperneck 16.7297 -3.25212 2.33787
head 7.25878 -1.70486 1.25416
rclavicle 8.44835e-016 5.32743e-014
rhumerus -35.373 -21.7369 -69.3056
rradius 16.0393
rwrist 27.7874
rhand -7.1089 -26.5455
rfingers 7.12502
rthumb 18.7661 -55.6603
lclavicle 8.44835e-016 5.32743e-014
lhumerus -59.549 34.9919 33.3977
lradius 18.321
lwrist -36.2076
lhand -9.24693 22.0761
lfingers 7.12502
lthumb 16.7087 51.377
rfemur -1.75867 4.59707 36.0713
rtibia 13.0157
rfoot -12.6058 -9.38037
rtoes 12.6115
lfemur -34.5109 0.355914 -4.34241
ltibia 31.416
lfoot -7.0908 5.55703
ltoes -14.8336
98
root 18.9048 17.8199 2.72767 71.0518 -79.9299 -63.634
lowerback -1.77636 2.2089 6.43025
upperback -0.513229 2.70082 4.05217
thorax 0.572666 1.30815 0.6367
lowerneck -12.1509 -2.67179 -4.92893
upperneck 16.7758 -3.21517 2.25273
head 7.2656 -1.69346 1.22373
rclavicle -1.48592e-014 -1.86858e-014
rhumerus -34.5081 -21.2013 -69.53
rradius 16.3693
rwrist 26.8624
rhand -7.73888 -26.8903
rfingers 7.12502
rthumb 18.1601 -56.0626
lclavicle -1.48592e-014 -1.86858e-014
lhumerus -59.7479 35.4804 32.9703
lradius 18.0274
lwrist -37.0884
lhand -9.36237 22.1339
lfingers 7.12502
lthumb 16.5976 51.4441
rfemur -1.54688 4.55828 36.098
rtibia 13.0292
rfoot -12.8212 -9.20883
rtoes 12.1227
lfemur -34.3872 0.109518 -4.12942
ltibia 28.6672
lfoot -6.78461 5.73609
ltoes -14.8379
99
root 18.7849 17.8069 2.74401 72.7072 -79.9693 -65.0783
lowerback -1.8867 2.25664 6.51251
upperback -0.596119 2.75737 4.01782
thorax 0.556593 1.33452 0.560225
lowerneck -12.1427 -2.65134 -4.91095
upperneck 16.828 -3.18287 2.19616
head 7.27875 -1.68296 1.20554
rclavicle -1.13307e-014 1.15295e-014
rhumerus -33.6581 -20.7078 -69.7249
rradius 16.7134
rwrist 25.9212
rhand -8.32306 -27.1525
rfingers 7.12502
rthumb 17.598 -56.3761
lclavicle -1.13307e-014 1.15295e-014
lhumerus -59.8269 35.8587 32.7949
lradius 17.7715
lwrist -37.8057
lhand -9.44797 22.175
lfingers 7.12502
lthumb 16.5152 51.4922
rfemur -1.3245 4.51818 36.1253
rtibia 13.0388
rfoot -13.0326 -9.03588
rtoes 11.6291
lfemur -34.1951 -0.177838 -3.88845
ltibia 25.8907
lfoot -6.49982 5.94039
ltoes -14.9136
100
root 18.6634 17.793 2.761 74.4229 -80.0079 -66.5866
lowerback -1.98293 2.29541 6.5987
upperback -0.686492 2.80368 3.98027
thorax 0.524987 1.35523 0.477323
lowerneck -12.159 -2.62399 -4.90731
upperneck 16.8968 -3.14108 2.16003
head 7.30188 -1.66698 1.19703
rclavicle -1.4561e-014 2.78299e-015
rhumerus -32.8198 -20.2311 -69.9078
rradius 17.0714
rwrist 24.9722
rhand -8.91496 -27.3627
rfingers 7.12502
rthumb 17.0283 -56.6364
lclavicle -1.4561e-014 2.78299e-015
lhumerus -59.8364 36.1532 32.8077
lradius 17.5562
lwrist -38.3757
lhand -9.49093 22.1733
lfingers 7.12502
lthumb 16.4738 51.4939
rfemur -1.10034 4.46875 36.1454
rtibia 13.0646
rfoot -13.2508 -8.86332
rtoes 11.1397
lfemur -33.9499 -0.523171 -3.62308
ltibia 23.1338
lfoot -6.24589 6.1962
ltoes -15.054
101
root 18.5395 17.7783 2.77928 76.2627 -80.0513 -68.2339
lowerback -2.08757 2.34019 6.68426
upperback -0.770173 2.85659 3.94026
thorax 0.505538 1.3795 0.393102
lowerneck -12.1721 -2.59615 -4.89786
upperneck 16.9577 -3.09997 2.12546
head 7.32186 -1.65077 1.18806
rclavicle -1.11816e-014 -6.75868e-015
rhumerus -31.992 -19.7984 -70.065
rradius 17.4406
rwrist 24.0224
rhand -9.50229 -27.543
rfingers 7.12502
rthumb 16.4629 -56.8645
lclavicle -1.11816e-014 -6.75868e-015
lhumerus -59.7422 36.3681 33.0398
lradius 17.3779
lwrist -38.8175
lhand -9.50782 22.1643
lfingers 7.12502
lthumb 16.4576 51.4862
rfemur -0.856212 4.43023 36.1551
rtibia 13.1015
rfoot -13.4748 -8.69352
rtoes 10.6423
lfemur -33.6455 -0.919283 -3.33748
ltibia 20.4305
lfoot -6.00995 6.52651
ltoes -15.2748
102
root 18.4136 17.763 2.79888 78.1674 -80.0985 -69.9632
lowerback -2.19328 2.38288 6.76227
upperback -0.843577 2.90582 3.90257
thorax 0.49684 1.40227 0.315757
lowerneck -12.2045 -2.56497 -4.88068
upperneck 17.0207 -3.0518 2.07621
head 7.34532 -1.63185 1.17354
rclavicle 3.03147e-014 4.81059e-014
rhumerus -31.1613 -19.3979 -70.1993
rradius 17.8053
rwrist 23.124
rhand -10.1297 -27.6192
rfingers 7.12502
rthumb 15.8587 -56.9897
lclavicle 3.03147e-014 4.81059e-014
lhumerus -59.5727 36.5397 33.4493
lradius 17.231
lwrist -39.1597
lhand -9.49713 22.1193
lfingers 7.12502
lthumb 16.4679 51.4403
rfemur -0.593345 4.41633 36.1501
rtibia 13.1562
rfoot -13.7111 -8.53788
rtoes 10.1326
lfemur -33.3043 -1.36214 -3.04424
ltibia 17.8426
lfoot -5.79021 6.93208
ltoes -15.5131
103
root 18.2866 17.7469 2.81955 80.1058 -80.1459 -71.7345
lowerback -2.3011 2.42493 6.83136
upperback -0.914902 2.95392 3.86527
thorax 0.491117 1.42453 0.243954
lowerneck -12.2229 -2.52852 -4.86191
upperneck 17.0695 -2.99779 2.03059
head 7.36157 -1.6097 1.16072
rclavicle 1.19271e-015 1.03368e-014
rhumerus -30.3327 -19.0139 -70.3257
rradius 18.1802
rwrist 22.2175
rhand -10.7571 -27.6546
rfingers 7.12502
rthumb 15.2545 -57.0721
lclavicle 1.19271e-015 1.03368e-014
lhumerus -59.3302 36.6763 34.018
lradius 17.1113
lwrist -39.4249
lhand -9.48201 22.0535
lfingers 7.12502
lthumb 16.4824 51.3734
rfemur -0.333151 4.41446 36.1273
rtibia 13.2429
rfoot -13.9533 -8.38093
rtoes 9.58398
lfemur -32.9728 -1.82034 -2.75831
ltibia 15.4586
lfoot -5.61097 7.39304
ltoes -15.7394
104
root 18.159 17.7303 2.84103 81.9735 -80.1896 -73.4423
lowerback -2.41142 2.4609 6.88669
upperback -0.978924 2.99338 3.8303
thorax 0.493257 1.4428 0.182232
lowerneck -12.2546 -2.49165 -4.83123
upperneck 17.1165 -2.94192 1.97075
head 7.37911 -1.58702 1.14137
rclavicle -1.01132e-014 5.96354e-014
rhumerus -29.4902 -18.6306 -70.4588
rradius 18.5782
rwrist 21.2692
rhand -11.3493 -27.7093
rfingers 7.12502
rthumb 14.684 -57.1694
lclavicle -1.01132e-014 5.96354e-014
lhumerus -59.0085 36.7973 34.7388
lradius 17.0123
lwrist -39.6247
lhand -9.4745 21.9913
lfingers 7.12502
lthumb 16.4896 51.3106
rfemur -0.0835042 4.41594 36.0855
rtibia 13.3699
rfoot -14.2053 -8.22501
rtoes 8.99961
lfemur -32.6885 -2.24264 -2.51161
ltibia 13.3744
lfoot -5.50297 7.85691
ltoes -15.9534
105
root 18.0309 17.7133 2.86378 83.9025 -80.2343 -75.2168
lowerback -2.51575 2.49968 6.93867
upperback -1.04306 3.03733 3.79154
thorax 0.492254 1.46324 0.118463
lowerneck -12.2845 -2.4518 -4.79211
upperneck 17.1633 -2.88377 1.91115
head 7.39614 -1.56274 1.12096
rclavicle -1.08089e-014 -1.15295e-014
rhumerus -28.6459 -18.2497 -70.6009
rradius 19.001
rwrist 20.282
rhand -11.8748 -27.8059
rfingers 7.12502
rthumb 14.1776 -57.3021
lclavicle -1.08089e-014 -1.15295e-014
lhumerus -58.6083 36.891 35.598
lradius 16.9295
lwrist -39.7576
lhand -9.49331 21.916
lfingers 7.12502
lthumb 16.4715 51.2368
rfemur 0.142378 4.41476 36.0181
rtibia 13.5565
rfoot -14.4648 -8.03345
rtoes 8.37401
lfemur -32.4745 -2.56506 -2.33092
ltibia 11.6859
lfoot -5.51012 8.27858
ltoes -16.152
106
root 17.9027 17.6962 2.88712 85.6919 -80.2767 -76.8587
lowerback -2.60132 2.52843 6.98021
upperback -1.11084 3.07057 3.74809
thorax 0.476253 1.47802 0.0543023
lowerneck -12.3303 -2.41241 -4.73711
upperneck 17.2262 -2.82754 1.84393
head 7.42102 -1.53915 1.09506
rclavicle 9.88954e-015 -2.46493e-014
rhumerus -27.8078 -17.8779 -70.7526
rradius 19.4518
rwrist 19.2926
rhand -12.3344 -27.9617
rfingers 7.12502
rthumb 13.7347 -57.4884
lclavicle 9.88954e-015 -2.46493e-014
lhumerus -58.1433 36.9826 36.5544
lradius 16.852
lwrist -39.8581
lhand -9.53355 21.8643
lfingers 7.12502
lthumb 16.4328 51.1883
rfemur 0.346369 4.40456 35.9272
rtibia 13.7963
rfoot -14.7236 -7.82876
rtoes 7.70438
lfemur -32.3694 -2.73596 -2.26437
ltibia 10.4982
lfoot -5.64243 8.55376
ltoes -16.3393
107
root 17.7733 17.6795 2.9115 87.4556 -80.3184 -78.4939
lowerback -2.6803 2.55411 7.01755
upperback -1.16997 3.10008 3.70188
thorax 0.46532 1.49126 -0.0105217
lowerneck -12.3674 -2.37028 -4.6834
upperneck 17.2806 -2.76986 1.78888
head 7.44177 -1.51383 1.07362
rclavicle -1.83876e-015 -6.55989e-014
rhumerus -26.9682 -17.5223 -70.9083
rradius 19.9194
rwrist 18.3181
rhand -12.7191 -28.1406
rfingers 7.12502
rthumb 13.364 -57.692
lclavicle -1.83876e-015 -6.55989e-014
lhumerus -57.5979 37.0583 37.6327
lradius 16.7792
lwrist -39.908
lhand -9.60418 21.8279
lfingers 7.12502
lthumb 16.3648 51.1575
rfemur 0.545742 4.39862 35.8177
rtibia 14.0902
rfoot -14.9773 -7.60375
rtoes 6.97612
lfemur -32.3518 -2.70259 -2.33637
ltibia 9.84149
lfoot -5.84519 8.62812
ltoes -16.4535
108
root 17.6441 17.6631 2.93597 89.0558 -80.3513 -79.9705
lowerback -2.79584 2.57133 7.05182
upperback -1.22987 3.11466 3.65244
thorax 0.473359 1.4975 -0.0758556
lowerneck -12.276 -2.32148 -4.62371
upperneck 17.2653 -2.71357 1.75111
head 7.41717 -1.48759 1.05807
rclavicle 9.79014e-015 -1.59028e-014
rhumerus -26.1629 -17.1895 -71.0614
rradius 20.4079
rwrist 17.3895
rhand -13.0542 -28.3294
rfingers 7.12502
rthumb 13.0409 -57.9017
lclavicle 9.79014e-015 -1.59028e-014
lhumerus -56.9826 37.0968 38.8108
lradius 16.7053
lwrist -39.9101
lhand -9.71573 21.8445
lfingers 7.12502
lthumb 16.2574 51.1829
rfemur 0.716847 4.39647 35.7025
rtibia 14.4407
rfoot -15.2184 -7.38026
rtoes 6.19159
lfemur -32.4574 -2.49517 -2.53715
ltibia 9.73209
lfoot -6.02387 8.50061
ltoes -16.4305
109
root 17.5141 17.6471 2.96093 90.5731 -80.3699 -81.3826
lowerback -2.94606 2.5884 7.08979
upperback -1.26805 3.12374 3.60494
thorax 0.52311 1.50241 -0.139146
lowerneck -12.1209 -2.27439 -4.56082
upperneck 17.1967 -2.66525 1.72807
head 7.36431 -1.46342 1.04666
rclavicle 2.85753e-015 1.43125e-014
rhumerus -25.3563 -16.8976 -71.2118
rradius 20.9062
rwrist 16.5229
rhand -13.3194 -28.531
rfingers 7.12502
rthumb 12.7853 -58.1196
lclavicle 2.85753e-015 1.43125e-014
lhumerus -56.291 37.1553 40.0654
lradius 16.6209
lwrist -39.9256
lhand -9.85097 21.8846
lfingers 7.12502
lthumb 16.1272 51.2336
rfemur 0.880243 4.41491 35.5944
rtibia 14.8428
rfoot -15.4414 -7.1673
rtoes 5.35158
lfemur -32.634 -2.18361 -2.82325
ltibia 10.0854
lfoot -6.10467 8.25759
ltoes -16.2511
